<?xml version="1.0" encoding="iso-8859-1"?>
<!-- Generator: Adobe Illustrator 19.0.0, SVG Export Plug-In . SVG Version: 6.00 Build 0)  -->
<svg version="1.1" id="Layer_1" xmlns="http://www.w3.org/2000/svg" xmlns:xlink="http://www.w3.org/1999/xlink" x="0px" y="0px"
	 viewBox="0 0 512 512" style="enable-background:new 0 0 512 512;" xml:space="preserve">
<circle style="fill:#E9EDF1;" cx="256" cy="256" r="256"/>
<g>
	<path style="fill:#333333;" d="M459.96,398.704v-275.96c0-6.6-5.4-12-12-12H64.112c-6.6,0-12,5.4-12,12v275.952
		C52.112,398.704,460.968,398.704,459.96,398.704z"/>
	<rect x="67.112" y="125.744" style="fill:#333333;" width="377.84" height="257.92"/>
</g>
<rect x="16" y="398.704" style="fill:#D8D8D8;" width="479.92" height="7.504"/>
<polygon style="fill:#AAAAAA;" points="472.008,421.192 40.08,421.192 16.08,406.2 496,406.2 "/>
<g style="opacity:0.7;">
	<path style="fill:#FFFFFF;" d="M296.304,398.704h-80.688c0.768,4.208,4.52,7.504,9.216,7.504h62.248
		C291.784,406.2,295.544,402.912,296.304,398.704z"/>
</g>
<g>
	<rect x="368" y="351.752" style="fill:#E9EDF1;" width="32" height="8"/>
	<rect x="316.8" y="351.752" style="fill:#E9EDF1;" width="32" height="8"/>
	<rect x="265.6" y="351.752" style="fill:#E9EDF1;" width="32" height="8"/>
	<rect x="214.4" y="351.752" style="fill:#E9EDF1;" width="32" height="8"/>
	<rect x="163.2" y="351.752" style="fill:#E9EDF1;" width="32" height="8"/>
	<rect x="112" y="351.752" style="fill:#E9EDF1;" width="32" height="8"/>
	<rect x="368" y="149.696" style="fill:#E9EDF1;" width="32" height="8"/>
	<rect x="316.8" y="149.696" style="fill:#E9EDF1;" width="32" height="8"/>
	<rect x="265.6" y="149.696" style="fill:#E9EDF1;" width="32" height="8"/>
	<rect x="214.4" y="149.696" style="fill:#E9EDF1;" width="32" height="8"/>
	<rect x="163.2" y="149.696" style="fill:#E9EDF1;" width="32" height="8"/>
	<rect x="112" y="149.696" style="fill:#E9EDF1;" width="32" height="8"/>
</g>
<path style="fill:#DB2B42;" d="M315.16,310.888H196.92c-8.128,0-14.784-6.648-14.784-14.784v-87.68
	c0-8.128,6.648-14.784,14.784-14.784h118.24c8.128,0,14.784,6.648,14.784,14.784v87.68
	C329.944,304.24,323.288,310.888,315.16,310.888z"/>
<polygon style="fill:#FFFFFF;" points="236.016,222.72 287.184,252.264 236.016,281.808 "/>
<g>
</g>
<g>
</g>
<g>
</g>
<g>
</g>
<g>
</g>
<g>
</g>
<g>
</g>
<g>
</g>
<g>
</g>
<g>
</g>
<g>
</g>
<g>
</g>
<g>
</g>
<g>
</g>
<g>
</g>
</svg>
